<svg width="112" height="112" viewBox="0 0 112 112" fill="none" xmlns="http://www.w3.org/2000/svg">
<path fill-rule="evenodd" clip-rule="evenodd" d="M85.3333 0C100.061 0 112 11.9391 112 26.6667V85.3333C112 100.061 100.061 112 85.3333 112H26.6667C11.9391 112 4.29563e-08 100.061 0 85.3333V26.6667C0 11.9391 11.9391 4.29507e-08 26.6667 0H85.3333ZM12.7109 28.8889V66.6667C12.7109 74.9037 14.726 81.1259 18.7556 85.3333C22.8445 89.5407 28.6223 91.6445 36.089 91.6445C40.9482 91.6445 45.0964 90.7259 48.5334 88.8889C51.9704 86.9926 54.548 84.2665 56.2665 80.7109C57.9257 84.2072 60.474 86.9036 63.911 88.7999C67.4073 90.6962 71.6149 91.6445 76.5334 91.6445C83.9408 91.6445 89.6592 89.5407 93.6888 85.3333C97.7777 81.1259 99.822 74.9037 99.822 66.6667V28.8889H93.3333V66.4002C93.3333 72.9779 91.8815 77.8669 88.9779 81.0668C86.0742 84.2075 81.9259 85.7778 76.5334 85.7778C71.0816 85.7778 66.874 84.2075 63.911 81.0668C61.0073 77.9261 59.5556 73.0371 59.5556 66.4002V28.8889H53.0668V66.4002C53.0668 72.9779 51.5853 77.8669 48.6224 81.0668C45.6594 84.2076 41.4815 85.7778 36.089 85.7778C24.889 85.7778 19.2891 79.3186 19.2891 66.4002V28.8889H12.7109Z" fill="white"/>
</svg>
